<?xml version="1.0" encoding="UTF-8"?>
<svg width="50px" height="35px" viewBox="0 0 50 35" version="1.1" xmlns="http://www.w3.org/2000/svg" xmlns:xlink="http://www.w3.org/1999/xlink">
    <!-- Generator: Sketch 51.3 (57544) - http://www.bohemiancoding.com/sketch -->
    <title>bars - FontAwesome</title>
    <desc>Created with Sketch.</desc>
    <defs></defs>
    <g id="Welcome" stroke="none" stroke-width="1" fill="none" fill-rule="evenodd">
        <g id="Navigation-bar" transform="translate(-932.000000, -41.000000)" fill="#FFFFFF">
            <path d="M982,70.1428919 L982,73.5714674 C982,74.5089685 981.05599,75.2857552 979.916667,75.2857552 L934.083333,75.2857552 C932.94401,75.2857552 932,74.5089685 932,73.5714674 L932,70.1428919 C932,69.2053908 932.94401,68.4286041 934.083333,68.4286041 L979.916667,68.4286041 C981.05599,68.4286041 982,69.2053908 982,70.1428919 Z M982,56.4285898 L982,59.8571653 C982,60.7946665 981.05599,61.5714531 979.916667,61.5714531 L934.083333,61.5714531 C932.94401,61.5714531 932,60.7946665 932,59.8571653 L932,56.4285898 C932,55.4910887 932.94401,54.7143021 934.083333,54.7143021 L979.916667,54.7143021 C981.05599,54.7143021 982,55.4910887 982,56.4285898 Z M982,42.7142878 L982,46.1428633 C982,47.0803644 981.05599,47.857151 979.916667,47.857151 L934.083333,47.857151 C932.94401,47.857151 932,47.0803644 932,46.1428633 L932,42.7142878 C932,41.7767866 932.94401,41 934.083333,41 L979.916667,41 C981.05599,41 982,41.7767866 982,42.7142878 Z" id="bars---FontAwesome"></path>
        </g>
    </g>
</svg>